<svg width="11" height="16" viewBox="0 0 11 16" fill="none" xmlns="http://www.w3.org/2000/svg">
<path fill-rule="evenodd" clip-rule="evenodd" d="M6.875 1.86364V2.06128C8.8629 2.64802 10.3125 4.4743 10.3125 6.63636V11.4091H11V12.7727H0V11.4091H0.6875V6.63636C0.6875 4.4743 2.1371 2.64802 4.125 2.06128V1.86364C4.125 1.11052 4.74061 0.5 5.5 0.5C6.25939 0.5 6.875 1.11052 6.875 1.86364ZM2.0625 11.4091H8.9375V6.63636C8.9375 4.75357 7.39848 3.22727 5.5 3.22727C3.60152 3.22727 2.0625 4.75357 2.0625 6.63636V11.4091ZM6.875 14.1364V13.4545H4.125V14.1364C4.125 14.8895 4.74061 15.5 5.5 15.5C6.25939 15.5 6.875 14.8895 6.875 14.1364Z" fill="white"/>
</svg>
