<svg width="12" height="12" viewBox="0 0 12 12" fill="none" xmlns="http://www.w3.org/2000/svg">
<path d="M5.4 5.38762C5.4 5.05625 5.66863 4.78762 6 4.78762C6.33137 4.78762 6.6 5.05625 6.6 5.38762V8.98762C6.6 9.31899 6.33137 9.58762 6 9.58762C5.66863 9.58762 5.4 9.31899 5.4 8.98762V5.38762Z" fill="white"/>
<path d="M6 2.43069C5.66863 2.43069 5.4 2.69932 5.4 3.03069C5.4 3.36206 5.66863 3.63069 6 3.63069C6.33137 3.63069 6.6 3.36206 6.6 3.03069C6.6 2.69932 6.33137 2.43069 6 2.43069Z" fill="white"/>
<path fill-rule="evenodd" clip-rule="evenodd" d="M6 0C2.68629 0 0 2.68629 0 6C0 9.31371 2.68629 12 6 12C9.31371 12 12 9.31371 12 6C12 2.68629 9.31371 0 6 0ZM1.2 6C1.2 8.65097 3.34903 10.8 6 10.8C8.65097 10.8 10.8 8.65097 10.8 6C10.8 3.34903 8.65097 1.2 6 1.2C3.34903 1.2 1.2 3.34903 1.2 6Z" fill="white"/>
</svg>
