<svg width="14" height="14" viewBox="0 0 14 14" fill="none" xmlns="http://www.w3.org/2000/svg">
<path d="M13.9617 3.38075C13.912 3.22561 13.8173 3.08873 13.6897 2.98747C13.562 2.88621 13.4072 2.82513 13.2448 2.81199L10.9184 2.61511L10.0109 0.499439C9.94682 0.351119 9.84075 0.224792 9.70574 0.136042C9.57074 0.047292 9.41271 0 9.25114 0C9.08958 0 8.93154 0.047292 8.79654 0.136042C8.66153 0.224792 8.55546 0.351119 8.49141 0.499439L7.58385 2.61573L5.25684 2.81199C5.09526 2.82497 4.94114 2.8855 4.81392 2.98597C4.68671 3.08643 4.59209 3.22232 4.54202 3.37648C4.49194 3.53065 4.48864 3.6962 4.53254 3.85224C4.57644 4.00828 4.66557 4.14782 4.78869 4.25327L6.54879 5.7533L6.02189 7.98647C5.98484 8.143 5.99473 8.30697 6.0503 8.45792C6.10588 8.60887 6.2047 8.7401 6.3344 8.83524C6.46564 8.93161 6.62238 8.98716 6.78502 8.99494C6.94767 9.00273 7.10899 8.96239 7.24883 8.87899L9.24895 7.69146L11.2491 8.87899C11.3889 8.96239 11.5502 9.00273 11.7129 8.99494C11.8755 8.98716 12.0323 8.93161 12.1635 8.83524C12.2933 8.74016 12.3921 8.60893 12.4477 8.45796C12.5033 8.307 12.5131 8.143 12.476 7.98647L11.9491 5.7533L13.7086 4.25327C13.8324 4.14923 13.9226 4.01077 13.9676 3.85544C14.0127 3.70011 14.0107 3.53491 13.9617 3.38075ZM11.2203 5.06828C11.1052 5.16586 11.0193 5.29345 10.9723 5.43689C10.9253 5.58033 10.919 5.73399 10.9541 5.8808L11.411 7.81834L9.6746 6.78645C9.54645 6.71005 9.40003 6.66971 9.25083 6.66971C9.10163 6.66971 8.95521 6.71005 8.82705 6.78645L7.0907 7.81209L7.5476 5.87455C7.5832 5.72781 7.5772 5.57406 7.53028 5.43054C7.48335 5.28702 7.39737 5.15941 7.28196 5.06203L5.76562 3.77326L7.77137 3.60325C7.92023 3.59076 8.06288 3.53797 8.18401 3.45054C8.30514 3.36311 8.40017 3.24435 8.45891 3.10699L9.25083 1.26445L10.0409 3.10699C10.0997 3.24427 10.1948 3.36296 10.3159 3.45037C10.437 3.53779 10.5796 3.59063 10.7284 3.60325L12.7342 3.77326L11.2203 5.06828ZM4.35429 6.85332L0.854079 10.3534C0.760253 10.4472 0.632998 10.4999 0.500308 10.4999C0.367618 10.4999 0.240363 10.4472 0.146537 10.3534C0.0527109 10.2596 0 10.1323 0 9.99964C0 9.86695 0.0527109 9.7397 0.146537 9.64588L3.64674 6.14581C3.74057 6.05198 3.86783 5.99928 4.00052 5.99928C4.13321 5.99928 4.26046 6.05198 4.35429 6.14581C4.44811 6.23963 4.50082 6.36688 4.50082 6.49956C4.50082 6.63225 4.44811 6.7595 4.35429 6.85332ZM5.35435 10.3534L1.85414 13.8535C1.80768 13.8999 1.75253 13.9368 1.69183 13.9619C1.63113 13.9871 1.56607 14 1.50037 14C1.43467 14 1.36961 13.9871 1.30891 13.9619C1.24821 13.9368 1.19305 13.8999 1.1466 13.8535C1.10014 13.807 1.06329 13.7519 1.03814 13.6912C1.013 13.6305 1.00006 13.5654 1.00006 13.4997C1.00006 13.434 1.013 13.369 1.03814 13.3083C1.06329 13.2476 1.10014 13.1924 1.1466 13.146L4.6468 9.64588C4.74063 9.55206 4.86789 9.49935 5.00058 9.49935C5.13327 9.49935 5.26052 9.55206 5.35435 9.64588C5.44817 9.7397 5.50088 9.86695 5.50088 9.99964C5.50088 10.1323 5.44817 10.2596 5.35435 10.3534ZM9.85462 9.64588C9.90111 9.69232 9.93799 9.74746 9.96315 9.80816C9.98831 9.86886 10.0013 9.93393 10.0013 9.99964C10.0013 10.0653 9.98831 10.1304 9.96315 10.1911C9.93799 10.2518 9.90111 10.307 9.85462 10.3534L6.35441 13.8535C6.30795 13.8999 6.25279 13.9368 6.19209 13.9619C6.13139 13.9871 6.06634 14 6.00064 14C5.93493 14 5.86988 13.9871 5.80918 13.9619C5.74848 13.9368 5.69332 13.8999 5.64686 13.8535C5.60041 13.807 5.56355 13.7519 5.53841 13.6912C5.51327 13.6305 5.50033 13.5654 5.50033 13.4997C5.50033 13.434 5.51327 13.369 5.53841 13.3083C5.56355 13.2476 5.60041 13.1924 5.64686 13.146L9.14707 9.64588C9.19351 9.59939 9.24866 9.56251 9.30936 9.53735C9.37006 9.51219 9.43513 9.49923 9.50084 9.49923C9.56656 9.49923 9.63162 9.51219 9.69233 9.53735C9.75303 9.56251 9.80818 9.59939 9.85462 9.64588Z" fill="white"/>
</svg>
