<svg width="12" height="13" viewBox="0 0 12 13" fill="none" xmlns="http://www.w3.org/2000/svg">
<path fill-rule="evenodd" clip-rule="evenodd" d="M5.98526 0C5.72295 0 5.50425 -1.09799e-08 5.32505 0.0117896C5.14187 0.0194173 4.96122 0.0572607 4.79039 0.123791C4.59365 0.205191 4.41488 0.324551 4.26427 0.475053C4.11367 0.625555 3.99419 0.804251 3.91266 1.00093C3.82718 1.20725 3.80419 1.42536 3.79476 1.66233C3.79382 1.749 3.77087 1.834 3.72809 1.90937C3.6853 1.98474 3.62406 2.04801 3.55013 2.09324C3.47401 2.1348 3.38859 2.15633 3.30187 2.15582C3.21515 2.1553 3.12999 2.13275 3.05437 2.09029C2.84452 1.97947 2.6441 1.89046 2.42245 1.86098C2.21139 1.83322 1.99692 1.8473 1.7913 1.90243C1.58567 1.95755 1.39292 2.05263 1.22404 2.18225C1.08126 2.29713 0.958375 2.43475 0.860336 2.58958C0.760124 2.73931 0.650481 2.92853 0.519617 3.15548L0.50488 3.18142C0.373426 3.40837 0.264373 3.59759 0.185383 3.75911C0.102856 3.9277 0.038013 4.09393 0.0144338 4.27785C-0.0418023 4.70403 0.0735465 5.13511 0.33511 5.47626C0.47128 5.65369 0.648713 5.78279 0.849136 5.90893C0.923858 5.95311 0.986113 6.01557 1.03004 6.09044C1.07397 6.16531 1.09813 6.25012 1.10025 6.3369C1.09813 6.42367 1.07397 6.50849 1.03004 6.58335C0.986113 6.65822 0.923858 6.72068 0.849136 6.76486C0.648713 6.89101 0.471869 7.0201 0.33511 7.19753C0.205494 7.36641 0.110409 7.55916 0.0552865 7.76479C0.000163543 7.97041 -0.0139185 8.18488 0.0138444 8.39594C0.038013 8.57986 0.102266 8.74609 0.184793 8.91469C0.264373 9.0762 0.373426 9.26543 0.50488 9.49238L0.519617 9.51831C0.650481 9.74526 0.760124 9.93448 0.860336 10.0842C0.964673 10.2392 1.07667 10.379 1.22404 10.491C1.39288 10.6207 1.58561 10.7159 1.79123 10.7711C1.99686 10.8263 2.21135 10.8405 2.42245 10.8128C2.6441 10.7833 2.84452 10.6949 3.05437 10.5835C3.1299 10.5411 3.21496 10.5186 3.30158 10.5181C3.38819 10.5175 3.47351 10.539 3.54954 10.5806C3.62388 10.6254 3.6855 10.6886 3.72853 10.764C3.77156 10.8394 3.79456 10.9246 3.79535 11.0115C3.80419 11.2484 3.82718 11.4665 3.91325 11.6729C3.99465 11.8696 4.11401 12.0484 4.26451 12.199C4.41501 12.3496 4.59371 12.4691 4.79039 12.5506C4.96134 12.6213 5.13818 12.649 5.32505 12.6614C5.50425 12.6738 5.72295 12.6738 5.98526 12.6738H6.01474C6.27705 12.6738 6.49575 12.6738 6.67495 12.662C6.86241 12.649 7.03866 12.6213 7.20961 12.55C7.40635 12.4686 7.58512 12.3492 7.73573 12.1987C7.88633 12.0482 8.00581 11.8695 8.08734 11.6729C8.17282 11.4665 8.19581 11.2484 8.20524 11.0115C8.20608 10.9247 8.22898 10.8396 8.27177 10.7641C8.31457 10.6886 8.37585 10.6252 8.44987 10.58C8.52604 10.5385 8.61149 10.5171 8.6982 10.5177C8.78492 10.5183 8.87006 10.5409 8.94562 10.5835C9.15548 10.6943 9.3559 10.7833 9.57755 10.8122C10.0037 10.8685 10.4348 10.7531 10.776 10.4915C10.9233 10.3784 11.0353 10.2392 11.1397 10.0842C11.2399 9.93448 11.3495 9.74526 11.4804 9.51831L11.4951 9.49238C11.6266 9.26543 11.7356 9.0762 11.8146 8.91469C11.8971 8.74609 11.962 8.57927 11.9856 8.39594C12.0418 7.96976 11.9265 7.53868 11.6649 7.19753C11.5287 7.0201 11.3513 6.89101 11.1509 6.76486C11.0761 6.72068 11.0139 6.65822 10.97 6.58335C10.926 6.50849 10.9019 6.42367 10.8997 6.3369C10.8997 6.17302 10.9893 6.01032 11.1509 5.90893C11.3513 5.78279 11.5281 5.65369 11.6649 5.47626C11.7945 5.30738 11.8896 5.11463 11.9447 4.909C11.9998 4.70338 12.0139 4.48891 11.9862 4.27785C11.9581 4.09671 11.9003 3.92144 11.8152 3.75911C11.7146 3.56325 11.6078 3.37059 11.4951 3.18142L11.4804 3.15548C11.3727 2.96336 11.2591 2.77464 11.1397 2.58958C11.0416 2.43491 10.9187 2.29748 10.776 2.18284C10.6071 2.05312 10.4144 1.95793 10.2088 1.90271C10.0031 1.84748 9.78865 1.8333 9.57755 1.86098C9.3559 1.89046 9.15548 1.97888 8.94562 2.09029C8.87008 2.13265 8.78503 2.15514 8.69842 2.15565C8.61182 2.15617 8.5265 2.13469 8.45046 2.09324C8.37631 2.04815 8.31484 1.98495 8.27184 1.90957C8.22884 1.83419 8.20572 1.74911 8.20465 1.66233C8.19581 1.42536 8.17282 1.20725 8.08675 1.00093C8.00535 0.804196 7.88599 0.62542 7.73549 0.474817C7.58499 0.324214 7.40629 0.204734 7.20961 0.123201C7.03866 0.0524636 6.86182 0.0247581 6.67495 0.0123791C6.49575 1.64698e-08 6.27705 0 6.01474 0H5.98526ZM5.12875 0.940219C5.17414 0.921355 5.24311 0.90426 5.38517 0.894239C5.53077 0.884218 5.71941 0.884218 6 0.884218C6.28059 0.884218 6.46922 0.884218 6.61483 0.894239C6.75689 0.90426 6.82586 0.921355 6.87125 0.940219C7.05222 1.01508 7.19546 1.15833 7.27033 1.3393C7.29391 1.39589 7.31336 1.4849 7.32102 1.69534C7.33871 2.16221 7.5798 2.61198 8.00776 2.85897C8.43573 3.10655 8.94562 3.09005 9.35885 2.87194C9.54512 2.7735 9.63178 2.74579 9.69308 2.73813C9.88677 2.71254 10.0827 2.76491 10.2378 2.88373C10.2767 2.91379 10.3262 2.96508 10.4058 3.08297C10.4877 3.20441 10.582 3.36769 10.7223 3.61056C10.8626 3.85342 10.9563 4.0173 11.0206 4.14816C11.0837 4.27608 11.1031 4.34446 11.109 4.39338C11.1346 4.58707 11.0822 4.78298 10.9634 4.93806C10.9257 4.98699 10.8585 5.0483 10.6805 5.1603C10.2843 5.40906 10.0155 5.84291 10.0155 6.3369C10.0155 6.83088 10.2843 7.26474 10.6805 7.5135C10.8585 7.6255 10.9257 7.6868 10.9634 7.73573C11.0825 7.89076 11.1344 8.08647 11.109 8.28041C11.1031 8.32933 11.0831 8.3983 11.0206 8.52563C10.9563 8.65708 10.8626 8.82037 10.7223 9.06323C10.582 9.3061 10.4871 9.46939 10.4058 9.59082C10.3262 9.70871 10.2767 9.76 10.2378 9.79006C10.0827 9.90888 9.88677 9.96126 9.69308 9.93566C9.63178 9.928 9.54571 9.90029 9.35885 9.80185C8.94621 9.58374 8.43573 9.56724 8.00776 9.81423C7.5798 10.0618 7.33871 10.5116 7.32102 10.9785C7.31336 11.1889 7.29391 11.2779 7.27033 11.3345C7.23329 11.424 7.17899 11.5053 7.11051 11.5738C7.04203 11.6422 6.96073 11.6965 6.87125 11.7336C6.82586 11.7524 6.75689 11.7695 6.61483 11.7796C6.46922 11.7896 6.28059 11.7896 6 11.7896C5.71941 11.7896 5.53077 11.7896 5.38517 11.7796C5.24311 11.7695 5.17414 11.7524 5.12875 11.7336C5.03927 11.6965 4.95797 11.6422 4.88949 11.5738C4.82101 11.5053 4.76671 11.424 4.72967 11.3345C4.70609 11.2779 4.68664 11.1889 4.67898 10.9785C4.66129 10.5116 4.4202 10.0618 3.99224 9.81482C3.56427 9.56724 3.05438 9.58374 2.64115 9.80185C2.45488 9.90029 2.36822 9.928 2.30692 9.93566C2.11323 9.96126 1.91732 9.90888 1.76224 9.79006C1.72333 9.76 1.67382 9.70871 1.59424 9.59082C1.48336 9.41823 1.3778 9.24228 1.27769 9.06323C1.13739 8.82037 1.04366 8.65649 0.97941 8.52563C0.916336 8.39771 0.896883 8.32933 0.890988 8.28041C0.865396 8.08672 0.917768 7.89081 1.03659 7.73573C1.07432 7.6868 1.14152 7.6255 1.31954 7.5135C1.71567 7.26474 1.98447 6.83088 1.98447 6.3369C1.98447 5.84291 1.71567 5.40906 1.31954 5.1603C1.14152 5.0483 1.07432 4.98699 1.03659 4.93806C0.917768 4.78298 0.865396 4.58707 0.890988 4.39338C0.896883 4.34446 0.916926 4.27549 0.97941 4.14816C1.04366 4.01671 1.13739 3.85342 1.27769 3.61056C1.41798 3.36769 1.51289 3.20441 1.59424 3.08297C1.67382 2.96508 1.72333 2.91379 1.76224 2.88373C1.91732 2.76491 2.11323 2.71254 2.30692 2.73813C2.36822 2.74579 2.45429 2.7735 2.64115 2.87194C3.05379 3.09005 3.56427 3.10655 3.99224 2.85897C4.4202 2.61198 4.66129 2.16221 4.67898 1.69534C4.68664 1.4849 4.70609 1.39589 4.72967 1.3393C4.80454 1.15833 4.94778 1.01508 5.12875 0.940219Z" fill="white"/>
</svg>
