<svg width="12" height="12" viewBox="0 0 12 12" fill="none" xmlns="http://www.w3.org/2000/svg">
<path d="M3.33333 6.66667C2.96514 6.66667 2.66667 6.36819 2.66667 6C2.66667 5.63181 2.96514 5.33333 3.33333 5.33333C3.70152 5.33333 4 5.63181 4 6C4 6.36819 3.70152 6.66667 3.33333 6.66667Z" fill="white"/>
<path d="M3.33333 9.33333C2.96514 9.33333 2.66667 9.03486 2.66667 8.66667C2.66667 8.29848 2.96514 8 3.33333 8C3.70152 8 4 8.29848 4 8.66667C4 9.03486 3.70152 9.33333 3.33333 9.33333Z" fill="white"/>
<path d="M5.33333 8.66667C5.33333 9.03486 5.63181 9.33333 6 9.33333C6.36819 9.33333 6.66667 9.03486 6.66667 8.66667C6.66667 8.29848 6.36819 8 6 8C5.63181 8 5.33333 8.29848 5.33333 8.66667Z" fill="white"/>
<path d="M8.66667 9.33333C8.29848 9.33333 8 9.03486 8 8.66667C8 8.29848 8.29848 8 8.66667 8C9.03486 8 9.33333 8.29848 9.33333 8.66667C9.33333 9.03486 9.03486 9.33333 8.66667 9.33333Z" fill="white"/>
<path d="M5.33333 6C5.33333 6.36819 5.63181 6.66667 6 6.66667C6.36819 6.66667 6.66667 6.36819 6.66667 6C6.66667 5.63181 6.36819 5.33333 6 5.33333C5.63181 5.33333 5.33333 5.63181 5.33333 6Z" fill="white"/>
<path d="M8.66667 6.66667C8.29848 6.66667 8 6.36819 8 6C8 5.63181 8.29848 5.33333 8.66667 5.33333C9.03486 5.33333 9.33333 5.63181 9.33333 6C9.33333 6.36819 9.03486 6.66667 8.66667 6.66667Z" fill="white"/>
<path d="M3.33333 2.66667C2.96514 2.66667 2.66667 2.96514 2.66667 3.33333C2.66667 3.70152 2.96514 4 3.33333 4H8.66667C9.03486 4 9.33333 3.70152 9.33333 3.33333C9.33333 2.96514 9.03486 2.66667 8.66667 2.66667H3.33333Z" fill="white"/>
<path fill-rule="evenodd" clip-rule="evenodd" d="M2 0C0.895431 0 0 0.895431 0 2V10C0 11.1046 0.895431 12 2 12H10C11.1046 12 12 11.1046 12 10V2C12 0.895431 11.1046 0 10 0H2ZM10 1.33333H2C1.63181 1.33333 1.33333 1.63181 1.33333 2V10C1.33333 10.3682 1.63181 10.6667 2 10.6667H10C10.3682 10.6667 10.6667 10.3682 10.6667 10V2C10.6667 1.63181 10.3682 1.33333 10 1.33333Z" fill="white"/>
</svg>
