<svg width="12" height="12" viewBox="0 0 12 12" fill="none" xmlns="http://www.w3.org/2000/svg">
<path d="M5.04144 8.35292L2.72727 6.03875L3.49866 5.26736L5.04144 6.81014L8.127 3.72458L8.89839 4.49597L5.04144 8.35292Z" fill="white"/>
<path fill-rule="evenodd" clip-rule="evenodd" d="M0 2.18182C0 0.976833 0.976833 0 2.18182 0H9.81818C11.0232 0 12 0.976833 12 2.18182V9.81818C12 11.0232 11.0232 12 9.81818 12H2.18182C0.976833 12 0 11.0232 0 9.81818V2.18182ZM2.18182 1.09091H9.81818C10.4207 1.09091 10.9091 1.57933 10.9091 2.18182V9.81818C10.9091 10.4207 10.4207 10.9091 9.81818 10.9091H2.18182C1.57933 10.9091 1.09091 10.4207 1.09091 9.81818V2.18182C1.09091 1.57933 1.57933 1.09091 2.18182 1.09091Z" fill="white"/>
</svg>
