<svg width="12" height="15" viewBox="0 0 12 15" fill="none" xmlns="http://www.w3.org/2000/svg">
<path fill-rule="evenodd" clip-rule="evenodd" d="M2 15C0.895431 15 0 14.074 0 12.9317V6.0375C0 6.01413 0.00112422 5.99103 0.00332006 5.96826H0C0 5.57118 0.152534 5.19036 0.424047 4.90958L4.58578 0.605782C5.36683 -0.201927 6.63316 -0.201927 7.41421 0.605782L11.576 4.90959C11.8475 5.19036 12 5.57118 12 5.96826H11.9967C11.9989 5.99103 12 6.01413 12 6.0375V12.9317C12 14.074 11.1046 15 10 15H2ZM6.4714 1.58077L10.6667 5.91924V12.9317C10.6667 13.3125 10.3682 13.6212 10 13.6212H8V10.174C8 9.03177 7.10457 8.10577 6 8.10577C4.89543 8.10577 4 9.03177 4 10.174V13.6212H2C1.63181 13.6212 1.33333 13.3125 1.33333 12.9317V5.91929L5.52859 1.58077C5.78894 1.31154 6.21105 1.31154 6.4714 1.58077Z" fill="white"/>
</svg>
