<svg width="12" height="13" viewBox="0 0 12 13" fill="none" xmlns="http://www.w3.org/2000/svg">
<path d="M2.4 3.0649C2.4 2.74214 2.66863 2.48048 3 2.48048H9C9.33137 2.48048 9.6 2.74214 9.6 3.0649C9.6 3.38766 9.33137 3.64932 9 3.64932H3C2.66863 3.64932 2.4 3.38766 2.4 3.0649Z" fill="white"/>
<path d="M2.4 5.40256C2.4 5.0798 2.66863 4.81815 3 4.81815H9C9.33137 4.81815 9.6 5.0798 9.6 5.40256C9.6 5.72533 9.33137 5.98698 9 5.98698H3C2.66863 5.98698 2.4 5.72533 2.4 5.40256Z" fill="white"/>
<path d="M3 7.15581C2.66863 7.15581 2.4 7.41746 2.4 7.74022C2.4 8.06299 2.66863 8.32464 3 8.32464H9C9.33137 8.32464 9.6 8.06299 9.6 7.74022C9.6 7.41746 9.33137 7.15581 9 7.15581H3Z" fill="white"/>
<path d="M2.4 10.0779C2.4 9.75512 2.66863 9.49347 3 9.49347H5.4C5.73137 9.49347 6 9.75512 6 10.0779C6 10.4007 5.73137 10.6623 5.4 10.6623H3C2.66863 10.6623 2.4 10.4007 2.4 10.0779Z" fill="white"/>
<path fill-rule="evenodd" clip-rule="evenodd" d="M0 1.89607C0 0.927777 0.805888 0.142822 1.8 0.142822H10.2C11.1941 0.142822 12 0.927778 12 1.89607V11.2467C12 12.215 11.1941 13 10.2 13H1.8C0.805887 13 0 12.215 0 11.2467V1.89607ZM1.8 1.31165H10.2C10.5314 1.31165 10.8 1.5733 10.8 1.89607V11.2467C10.8 11.5695 10.5314 11.8311 10.2 11.8311H1.8C1.46863 11.8311 1.2 11.5695 1.2 11.2467V1.89607C1.2 1.57331 1.46863 1.31165 1.8 1.31165Z" fill="white"/>
</svg>
