<svg width="27" height="27" viewBox="0 0 27 27" fill="none" xmlns="http://www.w3.org/2000/svg">
<path d="M4.7093 16.745H5.65116C5.65107 16.5618 5.59756 16.3827 5.49719 16.2294C5.39681 16.0762 5.25393 15.9555 5.08605 15.8823L4.7093 16.745ZM22.2907 16.745L21.9139 15.8823C21.7461 15.9555 21.6032 16.0762 21.5028 16.2294C21.4024 16.3827 21.3489 16.5618 21.3488 16.745H22.2907ZM18.2093 7.22093C18.2093 7.47073 18.3085 7.71029 18.4852 7.88692C18.6618 8.06356 18.9014 8.16279 19.1512 8.16279C19.401 8.16279 19.6405 8.06356 19.8172 7.88692C19.9938 7.71029 20.093 7.47073 20.093 7.22093H18.2093ZM6.90698 7.22093C6.90698 7.47073 7.00621 7.71029 7.18284 7.88692C7.35947 8.06356 7.59904 8.16279 7.84884 8.16279C8.09863 8.16279 8.3382 8.06356 8.51483 7.88692C8.69146 7.71029 8.7907 7.47073 8.7907 7.22093H6.90698ZM7.22093 3.76744C5.30582 3.76744 3.46915 4.52822 2.11496 5.8824C0.760774 7.23659 1.60506e-08 9.07326 1.60506e-08 10.9884H1.88372C1.88372 9.57285 2.44603 8.21531 3.44695 7.21439C4.44787 6.21347 5.80541 5.65116 7.22093 5.65116V3.76744ZM19.7791 5.65116C21.1946 5.65116 22.5521 6.21347 23.553 7.21439C24.554 8.21531 25.1163 9.57285 25.1163 10.9884H27C27 9.07326 26.2392 7.23659 24.885 5.8824C23.5308 4.52822 21.6942 3.76744 19.7791 3.76744V5.65116ZM17.2674 25.1163H9.73256V27H17.2674V25.1163ZM9.73256 25.1163C8.52195 25.1163 7.70818 25.1138 7.10163 25.0321C6.5227 24.9543 6.27405 24.8199 6.11079 24.6554L4.77963 25.9891C5.35102 26.5605 6.06307 26.7928 6.85172 26.8995C7.61274 27.0025 8.5747 27 9.73256 27V25.1163ZM3.76744 21.0349C3.76744 22.1927 3.76493 23.1547 3.86791 23.9157C3.97339 24.7044 4.20698 25.4164 4.77837 25.9878L6.11079 24.6566C5.94753 24.4934 5.81316 24.2447 5.73405 23.6646C5.65367 23.0593 5.65116 22.2455 5.65116 21.0349H3.76744ZM21.3488 21.0349C21.3488 22.2455 21.3463 23.0592 21.2647 23.6658C21.1868 24.2447 21.0525 24.4934 20.8879 24.6566L22.2216 25.9878C22.793 25.4164 23.0253 24.7044 23.1321 23.9157C23.2351 23.1547 23.2326 22.1927 23.2326 21.0349H21.3488ZM17.2674 27C18.4253 27 19.3873 27.0025 20.1483 26.8995C20.9369 26.794 21.6502 26.5605 22.2216 25.9878L20.8892 24.6566C20.726 24.8199 20.4773 24.9543 19.8971 25.0334C19.2918 25.1138 18.478 25.1163 17.2674 25.1163V27ZM7.22093 5.65116C7.48967 5.65116 7.75214 5.67125 8.00958 5.70893L8.2846 3.8453C7.93243 3.79335 7.57691 3.76733 7.22093 3.76744V5.65116ZM13.5 0C12.1221 1.42443e-06 10.7788 0.431556 9.65868 1.23407C8.53859 2.03658 7.69796 3.16975 7.25484 4.47446L9.03809 5.07977C9.35476 4.14771 9.9554 3.33824 10.7557 2.76502C11.5559 2.1918 12.5156 1.8836 13.5 1.88372V0ZM7.25484 4.47446C7.0238 5.15687 6.90628 5.87256 6.90698 6.59302H8.7907C8.7907 6.06181 8.8786 5.55321 9.03935 5.07977L7.25484 4.47446ZM19.7791 3.76744C19.4186 3.76744 19.0633 3.79381 18.7154 3.8453L18.9917 5.70893C19.2524 5.67044 19.5155 5.65113 19.7791 5.65116V3.76744ZM13.5 1.88372C14.4842 1.88387 15.4436 2.19218 16.2436 2.76538C17.0436 3.33859 17.644 4.14792 17.9606 5.07977L19.7439 4.47446C19.3008 3.16995 18.4604 2.03693 17.3406 1.23443C16.2207 0.43194 14.8777 0.000263751 13.5 0V1.88372ZM17.9606 5.07977C18.1214 5.55321 18.2093 6.06181 18.2093 6.59302H20.093C20.093 5.85335 19.9699 5.1413 19.7439 4.47446L17.9619 5.07977H17.9606ZM5.65116 21.0349V16.745H3.76744V21.0349H5.65116ZM5.08605 15.8823C4.13399 15.4666 3.3239 14.7822 2.75508 13.9129C2.18627 13.0436 1.88344 12.0272 1.88372 10.9884H1.60506e-08C-9.36483e-05 12.3936 0.409753 13.7683 1.17931 14.9441C1.94888 16.1198 3.04472 17.0455 4.33256 17.6078L5.08605 15.8823ZM21.3488 16.745V21.0349H23.2326V16.745H21.3488ZM25.1163 10.9884C25.1166 12.0272 24.8137 13.0436 24.2449 13.9129C23.6761 14.7822 22.866 15.4666 21.9139 15.8823L22.6674 17.6078C23.9553 17.0455 25.0511 16.1198 25.8207 14.9441C26.5902 13.7683 27.0001 12.3936 27 10.9884H25.1163ZM18.2093 6.59302V7.22093H20.093V6.59302H18.2093ZM6.90698 6.59302V7.22093H8.7907V6.59302H6.90698Z" fill="#D26500"/>
</svg>
