<svg width="27" height="32" viewBox="0 0 27 32" fill="none" xmlns="http://www.w3.org/2000/svg">
<path d="M2 10.625C2 6.55975 2 4.52569 3.26356 3.26356C4.52569 2 6.55975 2 10.625 2H16.375C20.4403 2 22.4743 2 23.7364 3.26356C25 4.52569 25 6.55975 25 10.625V22.125C25 26.1903 25 28.2243 23.7364 29.4864C22.4743 30.75 20.4403 30.75 16.375 30.75H10.625C6.55975 30.75 4.52569 30.75 3.26356 29.4864C2 28.2243 2 26.1903 2 22.125V10.625Z" stroke="#455A64" stroke-width="2.3"/>
<path d="M24.8534 22.125H7.60337C6.2665 22.125 5.59806 22.125 5.04894 22.2716C4.3177 22.4677 3.65096 22.8528 3.11576 23.3883C2.58055 23.9238 2.19574 24.5907 2 25.322" stroke="#455A64" stroke-width="2.3"/>
<path d="M7.75 9.1875H19.25M7.75 14.2188H14.9375M24.2812 26.4375H7.75" stroke="#455A64" stroke-width="2.3" stroke-linecap="round"/>
</svg>
