<svg width="26" height="30" viewBox="0 0 26 30" fill="none" xmlns="http://www.w3.org/2000/svg">
<path d="M18.2 17.8125C16.5344 17.8125 15.7335 18.75 13 18.75C10.2665 18.75 9.47143 17.8125 7.8 17.8125C3.49375 17.8125 0 21.3398 0 25.6875V27.1875C0 28.7402 1.24777 30 2.78571 30H23.2143C24.7522 30 26 28.7402 26 27.1875V25.6875C26 21.3398 22.5063 17.8125 18.2 17.8125ZM23.2143 27.1875H2.78571V25.6875C2.78571 22.8984 5.0375 20.625 7.8 20.625C8.64732 20.625 10.0228 21.5625 13 21.5625C16.0004 21.5625 17.3469 20.625 18.2 20.625C20.9625 20.625 23.2143 22.8984 23.2143 25.6875V27.1875ZM13 16.875C17.6138 16.875 21.3571 13.0957 21.3571 8.4375C21.3571 3.7793 17.6138 0 13 0C8.38616 0 4.64286 3.7793 4.64286 8.4375C4.64286 13.0957 8.38616 16.875 13 16.875ZM13 2.8125C16.0701 2.8125 18.5714 5.33789 18.5714 8.4375C18.5714 11.5371 16.0701 14.0625 13 14.0625C9.92991 14.0625 7.42857 11.5371 7.42857 8.4375C7.42857 5.33789 9.92991 2.8125 13 2.8125Z" fill="#4834D4"/>
</svg>
