<svg width="18" height="18" viewBox="0 0 18 18" fill="none" xmlns="http://www.w3.org/2000/svg">
<path d="M8.34615 0.500123C7.27058 0.500123 6.38462 1.38608 6.38462 2.46165L6.39508 2.35442L5.75104 6.21862L4.51527 9.60029C4.49173 9.63102 4.46362 9.6539 4.42308 9.6539H3.76923V9.00006H0.5V17.5H3.76923V15.5385H6.33623C7.41115 15.5385 8.3795 15.0174 9 14.2079C9.62115 15.0174 10.5888 15.5385 11.6638 15.5385H14.2308V17.5H17.5V9.00006H14.2308V9.6539H13.5769C13.5357 9.6539 13.5083 9.63102 13.4854 9.60029L12.249 6.21862L11.6049 2.35442L11.6154 2.46165C11.6154 1.38608 10.7294 0.500123 9.65385 0.500123C9.43154 0.500123 9.204 0.543276 9 0.648545C8.79687 0.548023 8.57278 0.497155 8.34615 0.500123ZM8.32327 1.81827C8.33635 1.91242 8.34615 2.12688 8.34615 2.46165V12.5557C8.2605 13.0261 8.01234 13.4516 7.64499 13.7577C7.27764 14.0639 6.81444 14.2313 6.33623 14.2308H3.76923V10.9616H4.42308C4.676 10.9612 4.9243 10.8939 5.14275 10.7664C5.36119 10.6389 5.54197 10.4558 5.66669 10.2358L5.69285 10.1874L7.01819 6.55077L7.69231 2.51526V2.46165C7.69231 2.10203 7.96823 1.83069 8.32327 1.81827ZM9.67673 1.81827C10.0318 1.83134 10.3077 2.10138 10.3077 2.46165V2.51526L10.9818 6.55077L12.3078 10.1874L12.3333 10.2365C12.4582 10.4563 12.639 10.6392 12.8574 10.7666C13.0758 10.8939 13.3241 10.9612 13.5769 10.9616H14.2308V14.2308H11.6638C11.1855 14.2313 10.7222 14.0638 10.3548 13.7575C9.98746 13.4512 9.73936 13.0256 9.65385 12.555V2.46165C9.65385 2.12688 9.66431 1.91242 9.67673 1.81827ZM1.80769 10.3077H2.46154V16.1923H1.80769V10.3077ZM15.5385 10.3077H16.1923V16.1923H15.5385V10.3077Z" fill="#00465C"/>
</svg>
