<svg width="28" height="28" viewBox="0 0 28 28" fill="none" xmlns="http://www.w3.org/2000/svg">
<path fill-rule="evenodd" clip-rule="evenodd" d="M23.8995 23.8995C29.3668 18.4322 29.3668 9.56784 23.8995 4.1005C18.4322 -1.36683 9.56784 -1.36683 4.1005 4.1005C-1.36683 9.56785 -1.36683 18.4322 4.1005 23.8995C9.56784 29.3668 18.4322 29.3668 23.8995 23.8995ZM25.1197 12.657C24.831 10.2532 23.7643 7.92512 21.9196 6.0804C20.068 4.22884 17.7295 3.16109 15.3162 2.87715L15.302 2.95595C14.152 9.21631 9.21626 14.1521 2.9559 15.302L2.87715 15.3163C3.1611 17.7295 4.22885 20.068 6.0804 21.9196C7.92511 23.7643 10.2532 24.831 12.657 25.1197C12.6628 25.0867 12.6687 25.0538 12.6748 25.0209C13.8247 18.7605 18.7605 13.8248 25.0208 12.6748C25.0537 12.6688 25.0867 12.6628 25.1197 12.657ZM25.0208 16.0009V15.5331C20.3102 16.602 16.602 20.3102 15.5331 25.0209H16.0006C18.1687 24.6293 20.2437 23.5955 21.9196 21.9196C23.5955 20.2437 24.6292 18.1689 25.0208 16.0009ZM2.9559 12.4437L2.9559 12.1324C3.32873 9.91621 4.37023 7.79058 6.0804 6.0804C7.7905 4.3703 9.91603 3.32882 12.1321 2.95595L12.4437 2.95595C11.3748 7.66661 7.66656 11.3748 2.9559 12.4437Z" fill="#2F8C02"/>
</svg>
