<svg width="32" height="32" viewBox="0 0 32 32" fill="none" xmlns="http://www.w3.org/2000/svg">
<path d="M2 11.8C2 10.2536 3.2536 9 4.8 9H27.2C28.7464 9 30 10.2536 30 11.8V27.2C30 28.7464 28.7464 30 27.2 30H4.8C3.2536 30 2 28.7464 2 27.2V11.8Z" stroke="#3C4FFF" stroke-width="2.5" stroke-linecap="round" stroke-linejoin="round"/>
<path d="M21.6 9V4.8C21.6 3.2536 20.3464 2 18.8 2H13.2C11.6536 2 10.4 3.2536 10.4 4.8V9" stroke="#3C4FFF" stroke-width="2.5" stroke-linecap="round" stroke-linejoin="round"/>
<path d="M30 16L16.5491 18.6902C16.1866 18.7626 15.8134 18.7626 15.4509 18.6902L2 16" stroke="#3C4FFF" stroke-width="2.5" stroke-linecap="round" stroke-linejoin="round"/>
</svg>
