<svg width="17" height="20" viewBox="0 0 17 20" fill="none" xmlns="http://www.w3.org/2000/svg">
<path d="M11.7 11.7143C10.675 11.7143 10.1821 12.2857 8.5 12.2857C6.81786 12.2857 6.32857 11.7143 5.3 11.7143C2.65 11.7143 0.5 13.8643 0.5 16.5143V17.4286C0.5 18.375 1.26786 19.1429 2.21429 19.1429H14.7857C15.7321 19.1429 16.5 18.375 16.5 17.4286V16.5143C16.5 13.8643 14.35 11.7143 11.7 11.7143ZM14.7857 17.4286H2.21429V16.5143C2.21429 14.8143 3.6 13.4286 5.3 13.4286C5.82143 13.4286 6.66786 14 8.5 14C10.3464 14 11.175 13.4286 11.7 13.4286C13.4 13.4286 14.7857 14.8143 14.7857 16.5143V17.4286ZM8.5 11.1429C11.3393 11.1429 13.6429 8.83932 13.6429 6.00004C13.6429 3.16075 11.3393 0.857178 8.5 0.857178C5.66071 0.857178 3.35714 3.16075 3.35714 6.00004C3.35714 8.83932 5.66071 11.1429 8.5 11.1429ZM8.5 2.57146C10.3893 2.57146 11.9286 4.11075 11.9286 6.00004C11.9286 7.88932 10.3893 9.42861 8.5 9.42861C6.61071 9.42861 5.07143 7.88932 5.07143 6.00004C5.07143 4.11075 6.61071 2.57146 8.5 2.57146Z" fill="#5500DF"/>
</svg>
