<svg width="17" height="20" viewBox="0 0 17 20" fill="none" xmlns="http://www.w3.org/2000/svg">
<path d="M1.5 6.375C1.5 3.81212 1.5 2.52978 2.29659 1.73409C3.09228 0.9375 4.37462 0.9375 6.9375 0.9375H10.5625C13.1254 0.9375 14.4077 0.9375 15.2034 1.73409C16 2.52978 16 3.81212 16 6.375V13.625C16 16.1879 16 17.4702 15.2034 18.2659C14.4077 19.0625 13.1254 19.0625 10.5625 19.0625H6.9375C4.37462 19.0625 3.09228 19.0625 2.29659 18.2659C1.5 17.4702 1.5 16.1879 1.5 13.625V6.375Z" stroke="#455A64" stroke-width="1.5"/>
<path d="M15.9076 13.625H5.03256C4.18975 13.625 3.76834 13.625 3.42216 13.7174C2.96116 13.8411 2.54082 14.0839 2.20341 14.4214C1.866 14.759 1.6234 15.1794 1.5 15.6405" stroke="#455A64" stroke-width="1.5"/>
<path d="M5.125 5.46875H12.375M5.125 8.64062H9.65625M15.5469 16.3438H5.125" stroke="#455A64" stroke-width="1.5" stroke-linecap="round"/>
</svg>
