<svg width="17" height="16" viewBox="0 0 17 16" fill="none" xmlns="http://www.w3.org/2000/svg">
<path d="M1.5 5.825C1.5 5.02419 2.14919 4.375 2.95 4.375H14.55C15.3508 4.375 16 5.02419 16 5.825V13.8C16 14.6008 15.3508 15.25 14.55 15.25H2.95C2.14919 15.25 1.5 14.6008 1.5 13.8V5.825Z" stroke="#3C4FFF" stroke-width="1.5" stroke-linecap="round" stroke-linejoin="round"/>
<path d="M11.6501 4.375V2.2C11.6501 1.39919 11.0009 0.75 10.2001 0.75H7.3001C6.49928 0.75 5.8501 1.39919 5.8501 2.2V4.375" stroke="#3C4FFF" stroke-width="1.5" stroke-linecap="round" stroke-linejoin="round"/>
<path d="M16 8L9.03435 9.39316C8.84664 9.43064 8.65336 9.43064 8.46565 9.39316L1.5 8" stroke="#3C4FFF" stroke-width="1.5" stroke-linecap="round" stroke-linejoin="round"/>
</svg>
