<svg width="18" height="16" viewBox="0 0 18 16" fill="none" xmlns="http://www.w3.org/2000/svg">
<path fill-rule="evenodd" clip-rule="evenodd" d="M15.0104 13.6097C18.3299 10.5115 18.3299 5.48843 15.0104 2.39027C11.691 -0.707889 6.30905 -0.707889 2.98959 2.39027C-0.329864 5.48843 -0.329864 10.5115 2.98959 13.6097C6.30905 16.7079 11.691 16.7079 15.0104 13.6097ZM15.7512 7.23895C15.576 5.87682 14.9283 4.55755 13.8083 3.51221C12.6842 2.46299 11.2643 1.85794 9.79914 1.69703L9.79049 1.74169C9.09231 5.28923 6.09559 8.08617 2.29466 8.7378L2.24684 8.74587C2.41924 10.1134 3.06752 11.4385 4.19167 12.4878C5.31168 13.5331 6.72517 14.1375 8.18459 14.3011C8.18813 14.2825 8.19173 14.2638 8.1954 14.2452C8.89357 10.6976 11.8903 7.90068 15.6912 7.24905C15.7112 7.24562 15.7312 7.24226 15.7512 7.23895ZM15.6912 9.13381V8.86875C12.8312 9.47446 10.5798 11.5758 9.93079 14.2452H10.2147C11.531 14.0232 12.7908 13.4374 13.8083 12.4878C14.8258 11.5381 15.4534 10.3624 15.6912 9.13381ZM2.29466 7.1181L2.29466 6.94169C2.52102 5.68584 3.15335 4.48131 4.19167 3.51221C5.22995 2.54316 6.52045 1.95298 7.86594 1.74169L8.05509 1.74169C7.40611 4.41106 5.1547 6.51238 2.29466 7.1181Z" fill="#2F8C02"/>
</svg>
