<svg width="18" height="18" viewBox="0 0 18 18" fill="none" xmlns="http://www.w3.org/2000/svg">
<path d="M3.46512 11.0432H4.05814C4.05808 10.9278 4.02439 10.815 3.96119 10.7185C3.89799 10.622 3.80803 10.5461 3.70233 10.5L3.46512 11.0432ZM14.5349 11.0432L14.2977 10.5C14.192 10.5461 14.102 10.622 14.0388 10.7185C13.9756 10.815 13.9419 10.9278 13.9419 11.0432H14.5349ZM11.9651 5.04651C11.9651 5.20379 12.0276 5.35463 12.1388 5.46584C12.25 5.57705 12.4009 5.63953 12.5581 5.63953C12.7154 5.63953 12.8663 5.57705 12.9775 5.46584C13.0887 5.35463 13.1512 5.20379 13.1512 5.04651H11.9651ZM4.84884 5.04651C4.84884 5.20379 4.91132 5.35463 5.02253 5.46584C5.13374 5.57705 5.28458 5.63953 5.44186 5.63953C5.59914 5.63953 5.74998 5.57705 5.86119 5.46584C5.9724 5.35463 6.03488 5.20379 6.03488 5.04651H4.84884ZM5.04651 2.87209C3.8407 2.87209 2.68428 3.3511 1.83164 4.20373C0.979006 5.05637 0.5 6.21279 0.5 7.4186H1.68605C1.68605 6.52735 2.04009 5.67261 2.6703 5.0424C3.30051 4.41219 4.15526 4.05814 5.04651 4.05814V2.87209ZM12.9535 4.05814C13.8447 4.05814 14.6995 4.41219 15.3297 5.0424C15.9599 5.67261 16.314 6.52735 16.314 7.4186H17.5C17.5 6.21279 17.021 5.05637 16.1684 4.20373C15.3157 3.3511 14.1593 2.87209 12.9535 2.87209V4.05814ZM11.3721 16.314H6.62791V17.5H11.3721V16.314ZM6.62791 16.314C5.86567 16.314 5.3533 16.3124 4.9714 16.261C4.60688 16.212 4.45033 16.1273 4.34754 16.0238L3.5094 16.8635C3.86916 17.2233 4.31749 17.3695 4.81405 17.4367C5.29321 17.5016 5.89888 17.5 6.62791 17.5V16.314ZM2.87209 13.7442C2.87209 14.4732 2.87051 15.0789 2.93535 15.558C3.00177 16.0546 3.14884 16.5029 3.5086 16.8627L4.34754 16.0246C4.24474 15.9218 4.16014 15.7652 4.11033 15.3999C4.05972 15.0188 4.05814 14.5064 4.05814 13.7442H2.87209ZM13.9419 13.7442C13.9419 14.5064 13.9403 15.0188 13.8889 15.4007C13.8399 15.7652 13.7553 15.9218 13.6517 16.0246L14.4914 16.8627C14.8512 16.5029 14.9974 16.0546 15.0647 15.558C15.1295 15.0789 15.1279 14.4732 15.1279 13.7442H13.9419ZM11.3721 17.5C12.1011 17.5 12.7068 17.5016 13.186 17.4367C13.6825 17.3703 14.1316 17.2233 14.4914 16.8627L13.6525 16.0246C13.5497 16.1273 13.3931 16.212 13.0278 16.2618C12.6467 16.3124 12.1343 16.314 11.3721 16.314V17.5ZM5.04651 4.05814C5.21572 4.05814 5.38098 4.07079 5.54307 4.09451L5.71623 2.92112C5.49449 2.88841 5.27065 2.87202 5.04651 2.87209V4.05814ZM9 0.5C8.13243 0.500001 7.28664 0.77172 6.58139 1.27701C5.87615 1.78229 5.34687 2.49577 5.06786 3.31726L6.19065 3.69837C6.39004 3.11152 6.76821 2.60186 7.27208 2.24094C7.77595 1.88002 8.38021 1.68597 9 1.68605V0.5ZM5.06786 3.31726C4.92239 3.74692 4.8484 4.19754 4.84884 4.65116H6.03488C6.03488 4.3167 6.09023 3.99646 6.19144 3.69837L5.06786 3.31726ZM12.9535 2.87209C12.7266 2.87209 12.5028 2.8887 12.2838 2.92112L12.4577 4.09451C12.6219 4.07028 12.7876 4.05812 12.9535 4.05814V2.87209ZM9 1.68605C9.61966 1.68614 10.2237 1.88026 10.7274 2.24117C11.2312 2.60208 11.6092 3.11165 11.8086 3.69837L12.9313 3.31726C12.6524 2.4959 12.1232 1.78251 11.4181 1.27724C10.7131 0.771962 9.86744 0.500166 9 0.5V1.68605ZM11.8086 3.69837C11.9098 3.99646 11.9651 4.3167 11.9651 4.65116H13.1512C13.1512 4.18544 13.0737 3.73712 12.9313 3.31726L11.8093 3.69837H11.8086ZM4.05814 13.7442V11.0432H2.87209V13.7442H4.05814ZM3.70233 10.5C3.10288 10.2382 2.59283 9.80728 2.23468 9.25995C1.87654 8.71263 1.68587 8.07269 1.68605 7.4186H0.5C0.499941 8.30337 0.757993 9.16893 1.24253 9.90922C1.72707 10.6495 2.41705 11.2324 3.22791 11.5864L3.70233 10.5ZM13.9419 11.0432V13.7442H15.1279V11.0432H13.9419ZM16.314 7.4186C16.3141 8.07269 16.1235 8.71263 15.7653 9.25995C15.4072 9.80728 14.8971 10.2382 14.2977 10.5L14.7721 11.5864C15.583 11.2324 16.2729 10.6495 16.7575 9.90922C17.242 9.16893 17.5001 8.30337 17.5 7.4186H16.314ZM11.9651 4.65116V5.04651H13.1512V4.65116H11.9651ZM4.84884 4.65116V5.04651H6.03488V4.65116H4.84884Z" fill="#D26500"/>
<path d="M3.46484 13.7441H14.5346" stroke="#D26500" stroke-width="1.5" stroke-linecap="round" stroke-linejoin="round"/>
</svg>
