<svg width="11" height="15" viewBox="0 0 11 15" fill="none" xmlns="http://www.w3.org/2000/svg">
<path fill-rule="evenodd" clip-rule="evenodd" d="M6.875 1.36364V1.56128C8.8629 2.14802 10.3125 3.9743 10.3125 6.13636V10.9091H11V12.2727H0V10.9091H0.6875V6.13636C0.6875 3.9743 2.1371 2.14802 4.125 1.56128V1.36364C4.125 0.610521 4.74061 0 5.5 0C6.25939 0 6.875 0.610521 6.875 1.36364ZM2.0625 10.9091H8.9375V6.13636C8.9375 4.25357 7.39848 2.72727 5.5 2.72727C3.60152 2.72727 2.0625 4.25357 2.0625 6.13636V10.9091ZM6.875 13.6364V12.9545H4.125V13.6364C4.125 14.3895 4.74061 15 5.5 15C6.25939 15 6.875 14.3895 6.875 13.6364Z" fill="#242041"/>
</svg>
