<svg width="15" height="15" viewBox="0 0 15 15" fill="none" xmlns="http://www.w3.org/2000/svg">
<g id="material-symbols:date-range-outline-rounded">
<path id="Vector" d="M5 8.66675C4.82292 8.66675 4.67438 8.61075 4.55438 8.49875C4.43438 8.38675 4.37458 8.2483 4.375 8.08341C4.375 7.91814 4.435 7.7795 4.555 7.6675C4.675 7.5555 4.82333 7.49969 5 7.50008C5.17708 7.50008 5.32563 7.55608 5.44563 7.66808C5.56563 7.78008 5.62542 7.91853 5.625 8.08341C5.625 8.24869 5.565 8.38733 5.445 8.49933C5.325 8.61133 5.17667 8.66714 5 8.66675ZM7.5 8.66675C7.32292 8.66675 7.17438 8.61075 7.05438 8.49875C6.93438 8.38675 6.87458 8.2483 6.875 8.08341C6.875 7.91814 6.935 7.7795 7.055 7.6675C7.175 7.5555 7.32333 7.49969 7.5 7.50008C7.67708 7.50008 7.82563 7.55608 7.94563 7.66808C8.06563 7.78008 8.12542 7.91853 8.125 8.08341C8.125 8.24869 8.065 8.38733 7.945 8.49933C7.825 8.61133 7.67667 8.66714 7.5 8.66675ZM10 8.66675C9.82292 8.66675 9.67438 8.61075 9.55438 8.49875C9.43438 8.38675 9.37458 8.2483 9.375 8.08341C9.375 7.91814 9.435 7.7795 9.555 7.6675C9.675 7.5555 9.82333 7.49969 10 7.50008C10.1771 7.50008 10.3256 7.55608 10.4456 7.66808C10.5656 7.78008 10.6254 7.91853 10.625 8.08341C10.625 8.24869 10.565 8.38733 10.445 8.49933C10.325 8.61133 10.1767 8.66714 10 8.66675ZM3.125 13.3334C2.78125 13.3334 2.48688 13.2191 2.24188 12.9904C1.99688 12.7617 1.87458 12.4872 1.875 12.1667V4.00008C1.875 3.67925 1.9975 3.4045 2.2425 3.17583C2.4875 2.94716 2.78167 2.83303 3.125 2.83341H3.75V2.2355C3.75 2.07022 3.81 1.93411 3.93 1.82716C4.05 1.72022 4.19833 1.66675 4.375 1.66675C4.55208 1.66675 4.70063 1.72275 4.82063 1.83475C4.94063 1.94675 5.00042 2.08519 5 2.25008V2.83341H10V2.2355C10 2.07022 10.06 1.93411 10.18 1.82716C10.3 1.72022 10.4483 1.66675 10.625 1.66675C10.8021 1.66675 10.9506 1.72275 11.0706 1.83475C11.1906 1.94675 11.2504 2.08519 11.25 2.25008V2.83341H11.875C12.2188 2.83341 12.5131 2.94775 12.7581 3.17641C13.0031 3.40508 13.1254 3.67964 13.125 4.00008V12.1667C13.125 12.4876 13.0025 12.7623 12.7575 12.991C12.5125 13.2197 12.2183 13.3338 11.875 13.3334H3.125ZM3.125 12.1667H11.875V6.33341H3.125V12.1667ZM3.125 5.16675H11.875V4.00008H3.125V5.16675Z" fill="#242041"/>
</g>
</svg>
