<svg width="157" height="157" viewBox="0 0 157 157" fill="none" xmlns="http://www.w3.org/2000/svg">
<g id="solar:cup-star-bold" clip-path="url(#clip0_616_3367)">
<g id="Group" filter="url(#filter0_d_616_3367)">
<path id="Vector" d="M143.917 53.3931V53.8706C143.917 59.4964 143.917 62.3159 142.562 64.6186C141.208 66.9212 138.742 68.2884 133.823 71.0294L128.635 73.9077C132.207 61.8187 133.404 48.827 133.842 37.7192L133.908 36.2735L133.921 35.9333C138.18 37.4118 140.574 38.5173 142.065 40.5845C143.917 43.1553 143.917 46.5701 143.917 53.3931ZM13.0833 53.3931V53.8706C13.0833 59.4964 13.0833 62.3159 14.4374 64.6186C15.7915 66.9212 18.2577 68.2884 23.177 71.0294L28.3711 73.9077C24.7928 61.8187 23.5957 48.827 23.1574 37.7192L23.092 36.2735L23.0855 35.9333C18.8203 37.4118 16.426 38.5173 14.9345 40.5845C13.0833 43.1553 13.0833 46.5766 13.0833 53.3931Z" fill="#C1B2FF"/>
<path id="Vector_2" fill-rule="evenodd" clip-rule="evenodd" d="M78.4999 13.0833C90.1702 13.0833 99.78 14.1104 107.133 15.3533C114.584 16.6093 118.306 17.2373 121.42 21.0707C124.534 24.9041 124.364 29.045 124.036 37.3267C122.911 65.7764 116.775 101.304 83.4062 104.444V127.562H92.7607C94.2725 127.563 95.7372 128.088 96.906 129.047C98.0747 130.006 98.8753 131.34 99.1716 132.822L100.414 139.01H117.75C119.051 139.01 120.299 139.527 121.219 140.447C122.139 141.368 122.656 142.615 122.656 143.917C122.656 145.218 122.139 146.466 121.219 147.386C120.299 148.306 119.051 148.823 117.75 148.823H39.2499C37.9487 148.823 36.7008 148.306 35.7807 147.386C34.8606 146.466 34.3437 145.218 34.3437 143.917C34.3437 142.615 34.8606 141.368 35.7807 140.447C36.7008 139.527 37.9487 139.01 39.2499 139.01H56.5853L57.8282 132.822C58.1245 131.34 58.9251 130.006 60.0938 129.047C61.2626 128.088 62.7273 127.563 64.2391 127.562H73.5937V104.444C40.2312 101.304 34.0951 65.7699 32.9699 37.3267C32.6363 29.045 32.4727 24.8976 35.5866 21.0707C38.6939 17.2373 42.4161 16.6093 49.867 15.3533C59.3316 13.8021 68.9091 13.0428 78.4999 13.0833ZM84.7276 40.5518L84.0865 39.4004C81.6007 34.9325 80.3577 32.7083 78.4999 32.7083C76.6421 32.7083 75.3992 34.9325 72.9133 39.4004L72.2722 40.5518C71.5657 41.8209 71.2125 42.4489 70.663 42.8675C70.1069 43.2862 69.4201 43.4432 68.0463 43.7507L66.8034 44.0385C61.9757 45.1309 59.5618 45.6739 58.9861 47.5187C58.4104 49.3699 60.0589 51.2932 63.3494 55.1397L64.1998 56.134C65.1353 57.2265 65.6063 57.7695 65.8156 58.4498C66.0249 59.1301 65.953 59.8562 65.8156 61.315L65.6848 62.643C65.1876 67.7782 64.939 70.3491 66.4371 71.4873C67.9417 72.6256 70.2051 71.5855 74.7254 69.5052L75.8898 68.9688C77.1785 68.38 77.8196 68.0857 78.4999 68.0857C79.1802 68.0857 79.8213 68.38 81.11 68.9688L82.2744 69.5052C86.7947 71.592 89.0582 72.6256 90.5627 71.4873C92.0673 70.3491 91.8122 67.7782 91.315 62.643L91.1842 61.315C91.0468 59.8562 90.9749 59.1301 91.1842 58.4498C91.3935 57.776 91.8645 57.2265 92.8 56.134L93.6504 55.1397C96.9409 51.2932 98.5894 49.3699 98.0137 47.5187C97.438 45.6739 95.0242 45.1309 90.1964 44.0385L88.9535 43.7507C87.5797 43.4432 86.8929 43.2927 86.3368 42.8675C85.7873 42.4489 85.4341 41.8209 84.7276 40.5518Z" fill="#C1B2FF"/>
</g>
</g>
<defs>
<filter id="filter0_d_616_3367" x="-6.91675" y="-6.91821" width="170.833" height="175.741" filterUnits="userSpaceOnUse" color-interpolation-filters="sRGB">
<feFlood flood-opacity="0" result="BackgroundImageFix"/>
<feColorMatrix in="SourceAlpha" type="matrix" values="0 0 0 0 0 0 0 0 0 0 0 0 0 0 0 0 0 0 127 0" result="hardAlpha"/>
<feOffset/>
<feGaussianBlur stdDeviation="10"/>
<feComposite in2="hardAlpha" operator="out"/>
<feColorMatrix type="matrix" values="0 0 0 0 0.756863 0 0 0 0 0.698039 0 0 0 0 1 0 0 0 0.25 0"/>
<feBlend mode="normal" in2="BackgroundImageFix" result="effect1_dropShadow_616_3367"/>
<feBlend mode="normal" in="SourceGraphic" in2="effect1_dropShadow_616_3367" result="shape"/>
</filter>
<clipPath id="clip0_616_3367">
<rect width="157" height="157" fill="white"/>
</clipPath>
</defs>
</svg>
