<svg width="122" height="122" viewBox="0 0 122 122" fill="none" xmlns="http://www.w3.org/2000/svg">
<g id="ic:round-notifications-active">
<path id="Vector" d="M91.5 81.3334V55.9167C91.5 40.3109 83.1633 27.2467 68.625 23.79V20.3334C68.625 16.1142 65.1683 12.7084 60.9491 12.7084C56.73 12.7084 53.375 16.1142 53.375 20.3334V23.79C38.7858 27.2467 30.5 40.26 30.5 55.9167V81.3334L23.8916 87.8909C20.6891 91.0934 22.9258 96.5834 27.45 96.5834H94.3975C98.9216 96.5834 101.209 91.0934 98.0066 87.8909L91.5 81.3334ZM60.9491 111.833C66.5408 111.833 71.1158 107.258 71.1158 101.667H50.7825C50.7825 104.363 51.8536 106.949 53.7602 108.856C55.6668 110.762 58.2528 111.833 60.9491 111.833ZM34.4141 24.0442C36.5491 22.1125 36.6 18.8084 34.5666 16.775C33.632 15.8451 32.3726 15.3146 31.0543 15.2956C29.7359 15.2767 28.4618 15.7707 27.5008 16.6734C18.6304 24.7623 12.7697 35.6236 10.8783 47.4784C10.4208 50.5792 12.81 53.375 15.9616 53.375C18.4016 53.375 20.5366 51.5959 20.9433 49.1559C22.4413 39.495 27.1939 30.6355 34.4141 24.0442ZM94.55 16.6734C92.5166 14.7925 89.365 14.8434 87.4333 16.775C85.4 18.8084 85.5016 22.0617 87.5858 23.9934C94.6008 30.4492 99.5316 39.2434 101.057 49.105C101.412 51.545 103.547 53.3242 106.038 53.3242C109.139 53.3242 111.579 50.5284 111.071 47.4275C109.139 35.38 103.192 24.6542 94.55 16.6734Z" fill="#242041"/>
</g>
</svg>
