<svg width="16" height="16" viewBox="0 0 16 16" fill="none" xmlns="http://www.w3.org/2000/svg">
<path fill-rule="evenodd" clip-rule="evenodd" d="M8 16C12.4183 16 16 12.4183 16 8C16 3.58172 12.4183 0 8 0C3.58172 0 0 3.58172 0 8C0 12.4183 3.58172 16 8 16ZM10.4938 13.7023C12.5536 12.8003 14.0309 10.8148 14.205 8.46666C13.4735 8.86564 12.5511 9.19272 11.4997 9.42041C11.3673 11.0824 11.0069 12.5663 10.4938 13.7023ZM5.50622 2.29766C3.77533 3.0557 2.45578 4.57872 1.97518 6.43912C2.18107 6.63447 2.53167 6.87472 3.06518 7.11183C3.46413 7.28914 3.92936 7.44868 4.44922 7.58199C4.49647 5.51628 4.89199 3.65768 5.50622 2.29766ZM6.31164 9.69845C6.45094 10.9933 6.74239 12.1068 7.1104 12.9348C7.37176 13.5229 7.63694 13.8887 7.84159 14.0835C7.91438 14.1528 7.96706 14.1897 8 14.2087C8.03294 14.1897 8.08562 14.1528 8.15841 14.0835C8.36306 13.8887 8.62824 13.5229 8.8896 12.9348C9.25761 12.1068 9.54906 10.9933 9.68836 9.69845C9.14408 9.75042 8.57923 9.77778 8.00001 9.77778C7.42078 9.77778 6.85593 9.75042 6.31164 9.69845ZM4.50032 9.42041C4.63267 11.0824 4.99314 12.5663 5.50622 13.7023C3.4464 12.8003 1.96911 10.8148 1.79501 8.46665C2.52649 8.86563 3.4489 9.19272 4.50032 9.42041ZM9.77749 7.90187C9.21692 7.96521 8.62157 8 8.00001 8C7.37845 8 6.78308 7.96521 6.22251 7.90187C6.23419 5.92362 6.59811 4.21781 7.1104 3.06517C7.37176 2.4771 7.63694 2.11125 7.84159 1.91649C7.91438 1.84722 7.96706 1.8103 8 1.79125C8.03294 1.8103 8.08562 1.84722 8.15841 1.91649C8.36306 2.11125 8.62824 2.4771 8.8896 3.06517C9.40189 4.21781 9.76581 5.92362 9.77749 7.90187ZM11.5508 7.582C11.5035 5.51629 11.108 3.65768 10.4938 2.29766C12.2247 3.0557 13.5442 4.57873 14.0248 6.43913C13.8189 6.63447 13.4683 6.87472 12.9348 7.11183C12.5359 7.28914 12.0706 7.44869 11.5508 7.582Z" fill="#242041"/>
</svg>
