<svg width="17" height="13" viewBox="0 0 17 13" fill="none" xmlns="http://www.w3.org/2000/svg">
<path d="M1 0.928571C1 0.726127 1.18832 0.5 1.5 0.5H15.5C15.8117 0.5 16 0.726127 16 0.928571C16 1.13102 15.8117 1.35714 15.5 1.35714H1.5C1.18832 1.35714 1 1.13102 1 0.928571ZM1 12.0714C1 11.869 1.18832 11.6429 1.5 11.6429H15.5C15.8117 11.6429 16 11.869 16 12.0714C16 12.2739 15.8117 12.5 15.5 12.5H1.5C1.18832 12.5 1 12.2739 1 12.0714ZM1 6.5C1 6.29755 1.18832 6.07143 1.5 6.07143H9.5C9.81168 6.07143 10 6.29755 10 6.5C10 6.70244 9.81168 6.92857 9.5 6.92857H1.5C1.18832 6.92857 1 6.70244 1 6.5Z" fill="#242041" stroke="#242041"/>
</svg>
