<svg width="35" height="36" viewBox="0 0 35 36" fill="none" xmlns="http://www.w3.org/2000/svg">
<path d="M19.4444 4.52673C26.0406 5.47023 31.1111 11.143 31.1111 18C31.1111 25.5172 25.0172 31.6111 17.5 31.6111C9.98279 31.6111 3.88889 25.5172 3.88889 18C3.88889 14.0364 5.58305 10.4686 8.28673 7.98102L5.53501 5.22929C2.12842 8.42225 0 12.9626 0 18C0 27.665 7.83502 35.5 17.5 35.5C27.165 35.5 35 27.665 35 18C35 8.33502 27.165 0.5 17.5 0.5C16.8428 0.5 16.194 0.536231 15.5556 0.606806V12.3329H19.4444V4.52673Z" fill="#DBDBDB"/>
<path d="M9.15271 11.5971C8.39336 12.3564 8.39336 13.5876 9.15271 14.347L14.6524 19.8467C15.4118 20.606 16.6429 20.606 17.4023 19.8467C18.1616 19.0873 18.1616 17.8562 17.4023 17.0968L11.9026 11.5971C11.1432 10.8377 9.91206 10.8377 9.15271 11.5971Z" fill="#DBDBDB"/>
</svg>
