<svg width="8" height="11" viewBox="0 0 8 11" fill="none" xmlns="http://www.w3.org/2000/svg">
<path d="M7.99829 6.52834C7.99893 5.9432 7.86909 5.36518 7.61809 4.8358C7.36709 4.30641 7.00115 3.8388 6.54657 3.46654L6.79677 3.12856L6.9613 3.24857C6.99414 3.27238 7.03514 3.28229 7.07532 3.27612C7.11551 3.26996 7.15159 3.24823 7.17566 3.21569L7.32653 3.01093C7.35051 2.97832 7.36049 2.9376 7.35428 2.89769C7.34808 2.85779 7.32619 2.82195 7.29343 2.79804L6.59334 2.28718C6.56036 2.26342 6.51927 2.25354 6.479 2.2597C6.43874 2.26586 6.40254 2.28755 6.37829 2.32006L6.2281 2.52481C6.20409 2.55738 6.19406 2.59808 6.2002 2.63798C6.20634 2.67789 6.22816 2.71374 6.26087 2.7377L6.42574 2.85771L6.17417 3.19772C5.72925 2.90987 5.23055 2.71389 4.70777 2.62143C4.85595 2.51236 4.97642 2.37041 5.05956 2.20691C5.14271 2.04341 5.18624 1.86287 5.18667 1.6797H5.18599C5.18599 1.52478 5.15526 1.37138 5.09557 1.22825C5.03587 1.08512 4.94837 0.955072 4.83807 0.845526C4.72777 0.735981 4.59682 0.649085 4.4527 0.589799C4.30858 0.530514 4.15412 0.5 3.99812 0.5C3.84213 0.5 3.68767 0.530514 3.54355 0.589799C3.39943 0.649085 3.26848 0.735981 3.15818 0.845526C3.04787 0.955072 2.96038 1.08512 2.90068 1.22825C2.84098 1.37138 2.81026 1.52478 2.81026 1.6797C2.81026 2.06615 3.00039 2.40651 3.28882 2.62143C2.75974 2.71533 2.26821 2.91195 1.833 3.19094L1.58382 2.84991L1.74869 2.73025C1.78141 2.70639 1.8033 2.67065 1.80957 2.63082C1.81583 2.591 1.80597 2.55033 1.78214 2.5177L1.63195 2.31294C1.6078 2.28035 1.57168 2.25851 1.53143 2.25217C1.49119 2.24582 1.45004 2.25548 1.41691 2.27904L0.716135 2.78821C0.683466 2.81218 0.661631 2.84798 0.655369 2.88783C0.649106 2.92769 0.658921 2.96839 0.682684 3.0011L0.833556 3.20585C0.883051 3.27365 0.97965 3.28857 1.04758 3.23975L1.21279 3.11941L1.46196 3.45841C1.00435 3.83046 0.63577 4.29893 0.382919 4.82989C0.130068 5.36084 -0.000727949 5.941 3.04724e-06 6.52834C3.04724e-06 8.72163 1.79068 10.5 4.00051 10.5C6.20899 10.5 7.99932 8.72231 8 6.528L7.99829 6.52834ZM3.11781 1.6797C3.12419 1.45187 3.21981 1.23549 3.38434 1.07659C3.54886 0.91768 3.76931 0.828775 3.99881 0.828775C4.22831 0.828775 4.44875 0.91768 4.61328 1.07659C4.7778 1.23549 4.87342 1.45187 4.87981 1.6797C4.87981 2.08412 4.60332 2.4204 4.22887 2.52142V1.9214H4.43367C4.51764 1.9214 4.58728 1.85259 4.58728 1.76886V1.51563C4.58701 1.47525 4.57074 1.43661 4.54199 1.40805C4.51324 1.3795 4.47433 1.36335 4.43367 1.36308H3.56496C3.52428 1.36326 3.48532 1.37939 3.45655 1.40796C3.42778 1.43653 3.41154 1.47522 3.41136 1.51563V1.76987C3.41136 1.85293 3.48065 1.92174 3.56496 1.92174H3.76977V2.52176C3.39429 2.42007 3.11781 2.08412 3.11781 1.6797ZM3.99915 9.58675C3.18273 9.58603 2.39996 9.26367 1.8226 8.69041C1.24524 8.11715 0.920478 7.33982 0.919574 6.52902C0.920568 5.71815 1.24533 4.94077 1.82264 4.36737C2.39994 3.79396 3.18267 3.47135 3.99915 3.47027C4.81551 3.47153 5.59806 3.79422 6.17522 4.36761C6.75238 4.94099 7.07705 5.71827 7.07804 6.52902C7.07705 7.33968 6.75234 8.11685 6.17516 8.69007C5.59797 9.26329 4.81542 9.58576 3.99915 9.58675ZM3.99915 4.36081C4.03852 4.36217 4.07776 4.35564 4.11453 4.34162C4.15131 4.3276 4.18487 4.30637 4.21321 4.2792C4.24155 4.25203 4.26409 4.21947 4.2795 4.18346C4.2949 4.14746 4.30286 4.10874 4.30288 4.06962C4.3029 4.0305 4.295 3.99177 4.27963 3.95575C4.26427 3.91972 4.24176 3.88714 4.21345 3.85994C4.18514 3.83273 4.15161 3.81146 4.11485 3.7974C4.07809 3.78334 4.03886 3.77677 3.99949 3.77808C3.92341 3.78061 3.8513 3.81239 3.79836 3.86672C3.74543 3.92105 3.71582 3.99368 3.71577 4.06928C3.71573 4.14488 3.74526 4.21754 3.79813 4.27193C3.851 4.32632 3.92307 4.35819 3.99915 4.36081ZM3.99915 8.69655C3.95978 8.69519 3.92054 8.70172 3.88376 8.71574C3.84699 8.72976 3.81343 8.75099 3.78509 8.77816C3.75675 8.80533 3.7342 8.83789 3.7188 8.8739C3.70339 8.9099 3.69544 8.94862 3.69542 8.98774C3.69539 9.02686 3.7033 9.06559 3.71866 9.10161C3.73403 9.13763 3.75653 9.17022 3.78484 9.19742C3.81315 9.22463 3.84669 9.24589 3.88344 9.25996C3.9202 9.27402 3.95944 9.28059 3.99881 9.27928C4.07489 9.27675 4.147 9.24496 4.19993 9.19063C4.25287 9.1363 4.28248 9.06368 4.28252 8.98808C4.28257 8.91248 4.25304 8.83982 4.20017 8.78543C4.1473 8.73104 4.07522 8.69917 3.99915 8.69655ZM3.0154 4.25233C2.97639 4.1853 2.91216 4.13642 2.83684 4.11642C2.76153 4.09643 2.68131 4.10697 2.61382 4.14572C2.54633 4.18447 2.4971 4.24826 2.47697 4.32305C2.45684 4.39784 2.46745 4.47752 2.50647 4.54454L3.48509 6.82327C3.56391 6.95851 3.69351 7.05719 3.84548 7.09767C3.99745 7.13815 4.15939 7.11713 4.29577 7.03921C4.43171 6.9607 4.5308 6.83191 4.57136 6.68102C4.61191 6.53014 4.59064 6.36944 4.51218 6.23409L3.01506 4.25199L3.0154 4.25233ZM5.09075 8.40569C5.05734 8.42483 5.02804 8.45033 5.00455 8.48071C4.98105 8.5111 4.96381 8.54578 4.95381 8.58279C4.94381 8.61979 4.94124 8.65839 4.94626 8.69637C4.95128 8.73436 4.96379 8.77099 4.98306 8.80418C5.02199 8.87121 5.08613 8.92013 5.16138 8.94019C5.19864 8.95012 5.2375 8.95266 5.27575 8.94768C5.314 8.94269 5.35089 8.93027 5.38431 8.91113C5.4177 8.89199 5.44697 8.8665 5.47045 8.83613C5.49393 8.80575 5.51115 8.77108 5.52113 8.73409C5.53112 8.6971 5.53367 8.65852 5.52864 8.62056C5.52361 8.58259 5.5111 8.54598 5.49183 8.51281C5.47255 8.47965 5.44689 8.45058 5.4163 8.42726C5.38572 8.40395 5.3508 8.38684 5.31356 8.37693C5.27632 8.36701 5.23747 8.36448 5.19924 8.36947C5.16101 8.37446 5.12415 8.38689 5.09075 8.40603V8.40569ZM1.70807 5.55136C1.77556 5.59006 1.85577 5.60056 1.93105 5.58053C2.00633 5.5605 2.07051 5.5116 2.10949 5.44457C2.14846 5.37755 2.15903 5.29789 2.13886 5.22313C2.1187 5.14837 2.06945 5.08462 2.00197 5.04592C1.93452 5.00712 1.85432 4.99652 1.77901 5.01645C1.7037 5.03638 1.63944 5.08521 1.60038 5.15219C1.56131 5.21917 1.55064 5.29882 1.57071 5.37362C1.59078 5.44841 1.63994 5.51222 1.70739 5.55102L1.70807 5.55136ZM6.29125 7.50498C6.22399 7.46965 6.14556 7.46157 6.07242 7.48244C5.99929 7.50331 5.93714 7.5515 5.89902 7.61691C5.8609 7.68231 5.84978 7.75984 5.86799 7.83321C5.8862 7.90658 5.93232 7.9701 5.99667 8.01042C6.06416 8.04913 6.14437 8.05962 6.21965 8.0396C6.29493 8.01957 6.35912 7.97067 6.39809 7.90364C6.43706 7.83662 6.44763 7.75696 6.42746 7.6822C6.4073 7.60743 6.35806 7.54369 6.29057 7.50498H6.29125ZM1.81696 6.52732C1.81253 6.45285 1.77962 6.38287 1.72496 6.33169C1.6703 6.28051 1.59801 6.25201 1.52289 6.25201C1.44777 6.25201 1.37549 6.28051 1.32083 6.33169C1.26617 6.38287 1.23326 6.45285 1.22883 6.52732C1.23134 6.60306 1.26337 6.67487 1.31818 6.72759C1.37298 6.78032 1.44626 6.80984 1.52256 6.80993C1.59887 6.81002 1.67222 6.78066 1.72714 6.72806C1.78207 6.67546 1.81427 6.60373 1.81696 6.528V6.52732ZM6.1827 6.52732C6.1827 6.68936 6.31344 6.81987 6.47557 6.81886C6.63805 6.81987 6.76981 6.69004 6.76981 6.528C6.76981 6.36596 6.63771 6.23647 6.47557 6.23579C6.39772 6.23579 6.32305 6.2665 6.268 6.32118C6.21295 6.37585 6.18202 6.45 6.18202 6.52732H6.1827ZM1.70773 7.50464C1.64024 7.54339 1.59101 7.60718 1.57088 7.68198C1.55075 7.75677 1.56136 7.83645 1.60038 7.90347C1.6394 7.9705 1.70363 8.01938 1.77894 8.03938C1.85425 8.05937 1.93448 8.04883 2.00197 8.01008C2.0662 7.96977 2.11225 7.90634 2.13045 7.83306C2.14866 7.75979 2.13761 7.68237 2.09963 7.617C2.06165 7.55164 1.99968 7.5034 1.92669 7.48239C1.8537 7.46139 1.77536 7.46924 1.70807 7.50431L1.70773 7.50464ZM5.99667 5.0449C5.94642 5.07384 5.90593 5.11693 5.88032 5.16871C5.85471 5.22049 5.84513 5.27865 5.85278 5.33584C5.86044 5.39303 5.88498 5.44668 5.92332 5.49002C5.96166 5.53336 6.01208 5.56445 6.06819 5.57935C6.12431 5.59426 6.18362 5.59231 6.23863 5.57376C6.29363 5.5552 6.34187 5.52088 6.37724 5.47512C6.41261 5.42935 6.43354 5.37421 6.43737 5.31664C6.4412 5.25907 6.42777 5.20167 6.39877 5.15168C6.35953 5.08476 6.29523 5.03596 6.21989 5.01596C6.14456 4.99595 6.06431 5.00636 5.99667 5.0449ZM2.90822 8.40434C2.84085 8.36863 2.76214 8.3603 2.6887 8.38112C2.61526 8.40193 2.55283 8.45026 2.51458 8.51591C2.47633 8.58155 2.46524 8.65939 2.48366 8.73299C2.50208 8.8066 2.54856 8.87023 2.61331 8.91045C2.68089 8.94929 2.76123 8.95988 2.83667 8.93989C2.91211 8.91989 2.97647 8.87096 3.01558 8.80384C3.05468 8.73672 3.06534 8.65693 3.04521 8.58201C3.02508 8.50709 2.9758 8.44318 2.90822 8.40434ZM5.09075 4.64997C5.1242 4.67099 5.16157 4.68508 5.20064 4.6914C5.2397 4.69771 5.27965 4.69611 5.31807 4.68669C5.3565 4.67728 5.39261 4.66025 5.42424 4.63662C5.45586 4.61299 5.48235 4.58325 5.50211 4.5492C5.52187 4.51514 5.5345 4.47747 5.53922 4.43844C5.54394 4.39942 5.54067 4.35985 5.52961 4.32211C5.51854 4.28437 5.4999 4.24925 5.47481 4.21885C5.44973 4.18845 5.41871 4.1634 5.38363 4.14521C5.31665 4.11184 5.23936 4.10518 5.1676 4.12657C5.09583 4.14797 5.03502 4.19581 4.99763 4.2603C4.96023 4.32478 4.94908 4.40103 4.96646 4.47341C4.98384 4.5458 5.02843 4.60884 5.0911 4.64963L5.09075 4.64997Z" fill="#242041" fill-opacity="0.37"/>
</svg>
