<svg width="29" height="36" viewBox="0 0 29 36" fill="none" xmlns="http://www.w3.org/2000/svg">
<path d="M28.494 21.5992C28.4963 19.5512 28.0418 17.5281 27.1633 15.6753C26.2848 13.8224 25.004 12.1858 23.413 10.8829L24.2887 9.69997L24.8646 10.12C24.9795 10.2033 25.123 10.238 25.2636 10.2164C25.4043 10.1949 25.5306 10.1188 25.6148 10.0049L26.1429 9.28826C26.2268 9.17412 26.2617 9.03159 26.24 8.89192C26.2183 8.75225 26.1417 8.62683 26.027 8.54315L23.5767 6.75513C23.4613 6.67197 23.3175 6.63741 23.1765 6.65896C23.0356 6.68051 22.9089 6.75643 22.824 6.87022L22.2984 7.58685C22.2143 7.70085 22.1792 7.84328 22.2007 7.98294C22.2222 8.1226 22.2986 8.2481 22.413 8.33196L22.9901 8.75197L22.1096 9.94201C20.5524 8.93456 18.8069 8.2486 16.9772 7.925C17.4958 7.54326 17.9175 7.04645 18.2085 6.47419C18.4995 5.90193 18.6518 5.27005 18.6534 4.62895H18.651C18.651 4.08673 18.5434 3.54982 18.3345 3.04887C18.1256 2.54792 17.8193 2.09275 17.4332 1.70934C17.0472 1.32593 16.5889 1.0218 16.0845 0.814298C15.58 0.606798 15.0394 0.5 14.4934 0.5C13.9475 0.5 13.4068 0.606798 12.9024 0.814298C12.398 1.0218 11.9397 1.32593 11.5536 1.70934C11.1676 2.09275 10.8613 2.54792 10.6524 3.04887C10.4434 3.54982 10.3359 4.08673 10.3359 4.62895C10.3359 5.98154 11.0014 7.17277 12.0109 7.925C10.1591 8.25365 8.43874 8.94181 6.91551 9.91829L6.04338 8.72469L6.62042 8.30586C6.73494 8.22238 6.81154 8.09728 6.83348 7.95788C6.85542 7.81849 6.82091 7.67614 6.7375 7.56193L6.21183 6.8453C6.12729 6.73121 6.00089 6.65479 5.86002 6.63258C5.71915 6.61037 5.57514 6.64417 5.45918 6.72665L3.00647 8.50875C2.89213 8.59263 2.81571 8.71792 2.79379 8.85741C2.77187 8.99691 2.80622 9.13936 2.88939 9.25386L3.41745 9.97049C3.59068 10.2078 3.92878 10.26 4.16652 10.0891L4.74475 9.66794L5.61688 10.8544C4.01522 12.1566 2.72519 13.7963 1.84022 15.6546C0.955237 17.513 0.497452 19.5435 0.500011 21.5992C0.500011 29.2757 6.76736 35.5 14.5018 35.5C22.2315 35.5 28.4976 29.2781 28.5 21.598L28.494 21.5992ZM11.4123 4.62895C11.4347 3.83154 11.7694 3.07423 12.3452 2.51805C12.921 1.96188 13.6926 1.65071 14.4958 1.65071C15.2991 1.65071 16.0706 1.96188 16.6465 2.51805C17.2223 3.07423 17.557 3.83154 17.5793 4.62895C17.5793 6.04443 16.6116 7.22141 15.301 7.57499V5.47491H16.0179C16.3118 5.47491 16.5555 5.23406 16.5555 4.941V4.0547C16.5545 3.91338 16.4976 3.77812 16.397 3.67819C16.2964 3.57826 16.1602 3.52171 16.0179 3.52078H12.9774C12.835 3.5214 12.6986 3.57786 12.5979 3.67785C12.4972 3.77784 12.4404 3.91329 12.4398 4.0547V4.94456C12.4398 5.23524 12.6823 5.4761 12.9774 5.4761H13.6942V7.57617C12.38 7.22023 11.4123 6.04443 11.4123 4.62895ZM14.497 32.3036C11.6396 32.3011 8.89985 31.1728 6.8791 29.1664C4.85836 27.16 3.72167 24.4394 3.71851 21.6016C3.72199 18.7635 4.85865 16.0427 6.87923 14.0358C8.89981 12.0289 11.6393 10.8997 14.497 10.8959C17.3543 10.9003 20.0932 12.0298 22.1133 14.0366C24.1333 16.0435 25.2697 18.7639 25.2731 21.6016C25.2697 24.4389 24.1332 27.159 22.113 29.1652C20.0929 31.1715 17.354 32.3002 14.497 32.3036ZM14.497 14.0128C14.6348 14.0176 14.7722 13.9947 14.9009 13.9457C15.0296 13.8966 15.147 13.8223 15.2462 13.7272C15.3454 13.6321 15.4243 13.5181 15.4782 13.3921C15.5322 13.2661 15.56 13.1306 15.5601 12.9937C15.5602 12.8567 15.5325 12.7212 15.4787 12.5951C15.4249 12.469 15.3462 12.355 15.2471 12.2598C15.148 12.1646 15.0306 12.0901 14.902 12.0409C14.7733 11.9917 14.636 11.9687 14.4982 11.9733C14.2319 11.9821 13.9795 12.0934 13.7943 12.2835C13.609 12.4737 13.5054 12.7279 13.5052 12.9925C13.5051 13.2571 13.6084 13.5114 13.7934 13.7018C13.9785 13.8921 14.2308 14.0037 14.497 14.0128ZM14.497 29.1879C14.3592 29.1832 14.2219 29.206 14.0932 29.2551C13.9645 29.3042 13.847 29.3785 13.7478 29.4736C13.6486 29.5687 13.5697 29.6826 13.5158 29.8086C13.4619 29.9347 13.434 30.0702 13.434 30.2071C13.4339 30.344 13.4616 30.4796 13.5153 30.6056C13.5691 30.7317 13.6479 30.8458 13.747 30.941C13.846 31.0362 13.9634 31.1106 14.0921 31.1598C14.2207 31.2091 14.358 31.2321 14.4958 31.2275C14.7621 31.2186 15.0145 31.1074 15.1998 30.9172C15.385 30.7271 15.4887 30.4729 15.4888 30.2083C15.489 29.9437 15.3856 29.6894 15.2006 29.499C15.0156 29.3086 14.7633 29.1971 14.497 29.1879ZM11.0539 13.6332C10.9174 13.3986 10.6925 13.2275 10.429 13.1575C10.1654 13.0875 9.88457 13.1244 9.64836 13.26C9.41215 13.3956 9.23986 13.6189 9.1694 13.8807C9.09893 14.1425 9.13607 14.4213 9.27263 14.6559L12.6978 22.6314C12.9737 23.1048 13.4273 23.4502 13.9592 23.5919C14.4911 23.7335 15.0579 23.6599 15.5352 23.3872C16.011 23.1124 16.3578 22.6617 16.4997 22.1336C16.6417 21.6055 16.5672 21.043 16.2926 20.5693L11.0527 13.632L11.0539 13.6332ZM18.3176 28.1699C18.2007 28.2369 18.0982 28.3261 18.0159 28.4325C17.9337 28.5388 17.8733 28.6602 17.8383 28.7897C17.8033 28.9193 17.7944 29.0543 17.8119 29.1873C17.8295 29.3203 17.8733 29.4485 17.9407 29.5646C18.077 29.7992 18.3015 29.9704 18.5648 30.0406C18.6952 30.0754 18.8313 30.0843 18.9651 30.0669C19.099 30.0494 19.2281 30.006 19.3451 29.939C19.462 29.872 19.5644 29.7828 19.6466 29.6764C19.7287 29.5701 19.789 29.4488 19.824 29.3193C19.8589 29.1899 19.8678 29.0548 19.8502 28.9219C19.8326 28.7891 19.7889 28.6609 19.7214 28.5448C19.6539 28.4288 19.5641 28.327 19.4571 28.2454C19.35 28.1638 19.2278 28.104 19.0975 28.0692C18.9671 28.0345 18.8312 28.0257 18.6974 28.0432C18.5636 28.0606 18.4345 28.1041 18.3176 28.1711V28.1699ZM6.47825 18.1798C6.71446 18.3152 6.99519 18.3519 7.25867 18.2819C7.52215 18.2118 7.7468 18.0406 7.8832 17.806C8.01961 17.5714 8.05659 17.2926 7.98602 17.031C7.91544 16.7693 7.74309 16.5462 7.50688 16.4107C7.27082 16.2749 6.99012 16.2378 6.72653 16.3076C6.46294 16.3773 6.23804 16.5482 6.10132 16.7827C5.9646 17.0171 5.92725 17.2959 5.99749 17.5577C6.06773 17.8194 6.2398 18.0428 6.47586 18.1786L6.47825 18.1798ZM22.5194 25.0174C22.284 24.8938 22.0094 24.8655 21.7535 24.9385C21.4975 25.0116 21.28 25.1803 21.1466 25.4092C21.0132 25.6381 20.9742 25.9094 21.038 26.1662C21.1017 26.423 21.2631 26.6454 21.4884 26.7865C21.7246 26.922 22.0053 26.9587 22.2688 26.8886C22.5323 26.8185 22.7569 26.6473 22.8933 26.4127C23.0297 26.1782 23.0667 25.8994 22.9961 25.6377C22.9255 25.376 22.7532 25.1529 22.517 25.0174H22.5194ZM6.85935 21.5956C6.84386 21.335 6.72868 21.09 6.53736 20.9109C6.34604 20.7318 6.09305 20.632 5.83013 20.632C5.5672 20.632 5.31421 20.7318 5.1229 20.9109C4.93158 21.09 4.8164 21.335 4.8009 21.5956C4.80968 21.8607 4.9218 22.112 5.11361 22.2966C5.30542 22.4811 5.56192 22.5844 5.82897 22.5848C6.09603 22.5851 6.35276 22.4823 6.545 22.2982C6.73724 22.1141 6.84996 21.8631 6.85935 21.598V21.5956ZM22.1395 21.5956C22.1395 22.1628 22.597 22.6196 23.1645 22.616C23.7332 22.6196 24.1943 22.1651 24.1943 21.598C24.1943 21.0309 23.732 20.5776 23.1645 20.5753C22.892 20.5753 22.6307 20.6828 22.438 20.8741C22.2453 21.0655 22.1371 21.325 22.1371 21.5956H22.1395ZM6.47705 25.0163C6.24084 25.1519 6.06855 25.3751 5.99809 25.6369C5.92763 25.8987 5.96476 26.1776 6.10132 26.4121C6.23789 26.6467 6.46269 26.8178 6.72628 26.8878C6.98988 26.9578 7.27066 26.9209 7.50688 26.7853C7.73172 26.6442 7.89287 26.4222 7.95659 26.1657C8.0203 25.9093 7.98165 25.6383 7.84871 25.4095C7.71577 25.1807 7.49887 25.0119 7.24341 24.9384C6.98795 24.8649 6.71376 24.8923 6.47825 25.0151L6.47705 25.0163ZM21.4884 16.4071C21.3125 16.5084 21.1708 16.6592 21.0811 16.8405C20.9915 17.0217 20.958 17.2253 20.9847 17.4254C21.0115 17.6256 21.0974 17.8134 21.2316 17.9651C21.3658 18.1168 21.5423 18.2256 21.7387 18.2777C21.9351 18.3299 22.1427 18.3231 22.3352 18.2581C22.5277 18.1932 22.6965 18.0731 22.8203 17.9129C22.9441 17.7527 23.0174 17.5597 23.0308 17.3582C23.0442 17.1568 22.9972 16.9559 22.8957 16.7809C22.7584 16.5466 22.5333 16.3759 22.2696 16.3059C22.0059 16.2358 21.7251 16.2722 21.4884 16.4071ZM10.6788 28.1652C10.443 28.0402 10.1675 28.0111 9.91045 28.0839C9.65341 28.1568 9.43492 28.3259 9.30103 28.5557C9.16715 28.7854 9.12835 29.0579 9.19281 29.3155C9.25728 29.5731 9.41997 29.7958 9.64657 29.9366C9.8831 30.0725 10.1643 30.1096 10.4284 30.0396C10.6924 29.9696 10.9176 29.7983 11.0545 29.5634C11.1914 29.3285 11.2287 29.0493 11.1582 28.787C11.0878 28.5248 10.9153 28.3011 10.6788 28.1652ZM18.3176 15.0249C18.4347 15.0985 18.5655 15.1478 18.7022 15.1699C18.8389 15.192 18.9788 15.1864 19.1132 15.1534C19.2477 15.1205 19.3741 15.0609 19.4848 14.9782C19.5955 14.8955 19.6882 14.7914 19.7574 14.6722C19.8266 14.553 19.8707 14.4211 19.8873 14.2846C19.9038 14.148 19.8924 14.0095 19.8536 13.8774C19.8149 13.7453 19.7496 13.6224 19.6618 13.516C19.574 13.4096 19.4655 13.3219 19.3427 13.2582C19.1083 13.1415 18.8378 13.1181 18.5866 13.193C18.3354 13.2679 18.1226 13.4353 17.9917 13.661C17.8608 13.8867 17.8218 14.1536 17.8826 14.4069C17.9434 14.6603 18.0995 14.8809 18.3188 15.0237L18.3176 15.0249Z" fill="#DBDBDB"/>
</svg>
