<svg width="15" height="16" viewBox="0 0 15 16" fill="none" xmlns="http://www.w3.org/2000/svg">
<g id="trash">
<path fill-rule="evenodd" clip-rule="evenodd" d="M11.2224 2.86842V2.07895C11.2224 1.20692 10.5259 0.5 9.66683 0.5H5.00016C4.14105 0.5 3.44461 1.20692 3.44461 2.07895V2.86842H1.11127C0.681719 2.86842 0.333496 3.22188 0.333496 3.65789C0.333496 4.09391 0.681719 4.44737 1.11127 4.44737H1.88905V13.1316C1.88905 14.4396 2.93372 15.5 4.22238 15.5H10.4446C11.7333 15.5 12.7779 14.4396 12.7779 13.1316V4.44737H13.5557C13.9853 4.44737 14.3335 4.09391 14.3335 3.65789C14.3335 3.22188 13.9853 2.86842 13.5557 2.86842H11.2224ZM9.66683 2.07895H5.00016V2.86842H9.66683V2.07895ZM11.2224 4.44737H3.44461V13.1316C3.44461 13.5676 3.79283 13.9211 4.22238 13.9211H10.4446C10.8742 13.9211 11.2224 13.5676 11.2224 13.1316V4.44737Z" fill="#242041"/>
<path d="M5.00016 6.02632H6.55572V12.3421H5.00016V6.02632Z" fill="#242041"/>
<path d="M8.11127 6.02632H9.66683V12.3421H8.11127V6.02632Z" fill="#242041"/>
</g>
</svg>
